<?xml version="1.0" encoding="utf-8" ?>
<svg xmlns="http://www.w3.org/2000/svg" width="4096" height="4096" viewBox="0 0 4096 4096">
  <path fill="#9B32F1" d="M2193.63 1021.05C2225.48 1020.47 2358.73 1017.6 2381.02 1024.12C2392.31 1037.42 2388.07 1210.15 2388.09 1239.37L2389 1643.16C2408.16 1636.42 2426.93 1621.67 2444.83 1611.61C2606.31 1520.91 2781.82 1491.87 2963.41 1524.12C3163.81 1558.76 3341.72 1672.89 3456.75 1840.61C3484.99 1881.16 3527.64 1955.42 3543.2 2003.24C3580.41 2117.65 3606.86 2279.53 3584.99 2398.31C3575.91 2447.62 3556.7 2526.04 3538.1 2570.89C3483.13 2700.88 3385.36 2831.11 3266.85 2909.56C3036.77 3061.86 2736.21 3097.33 2487.17 2969.17C2314.43 2880.29 2239.92 2789.17 2136.82 2632.33C2095.14 2568.96 2054.11 2505.17 2013.74 2440.96C1952.2 2344.08 1889.7 2247.82 1826.25 2152.19C1783.73 2087.12 1728.39 1992.24 1677.46 1936.68C1608.58 1861.54 1488.22 1790.84 1387.21 1772.18C1129.11 1724.49 857.438 1901.93 805.708 2161.07C773.462 2315.61 791.84 2442.57 885.282 2573.82C1168.26 2954.3 1737.02 2801.84 1811.88 2332.71C1838.45 2366.96 1869.84 2419.82 1896.4 2456.97C1926.58 2501.89 1957.7 2546.53 1987.15 2591.88C1998.37 2609.16 1995.4 2660.25 1995.37 2682.03L1995.33 2784.78L1995.42 2949.29C1995.42 2970.42 1998.11 3055.96 1988.99 3068.19C1975.39 3075.24 1939.88 3072.54 1921.97 3073C1897.39 3073.48 1759.66 3076.42 1746 3070.56C1733.28 3056.33 1736.72 3019.06 1736.81 2999.97L1736.8 2915.84C1720.94 2922.82 1701.92 2934.84 1686.96 2944.02C1491.88 3063.74 1229.93 3080.35 1016.9 2995.62C825.937 2919.16 673.128 2770.03 592.029 2580.99C509.027 2387.76 511.016 2186.56 588.996 1992.05C663.467 1802.85 810.711 1651.41 997.754 1571.66C1248.58 1464.49 1531.5 1497.39 1750.9 1656.79C1845.27 1722.3 1909.88 1810.44 1973.93 1904.38C2090.37 2075.17 2195.39 2253.65 2310.37 2425.89C2400.77 2566.16 2475.27 2688.28 2639.33 2753.16C2942.13 2872.9 3290.37 2673.39 3331.1 2348.23C3362.49 2097.67 3224.46 1889.15 2994.4 1795.54C2877 1751.49 2728.45 1766.84 2615.14 1814.61C2483.64 1870.04 2389.48 1983.78 2344.69 2116.37C2337.36 2138.15 2331.26 2160.33 2326.43 2182.79C2323.77 2195.3 2322.4 2226.12 2311.4 2230.01C2301.83 2221.93 2271.52 2172.11 2261.92 2158.2C2217.68 2094.07 2174.86 2019.33 2129.64 1956.72L2129.53 1357.3C2129.57 1254.97 2129.34 1152.04 2130 1049.7C2130.05 1042.6 2130.37 1032.58 2134.05 1026.72C2146.68 1019.04 2176.29 1021.74 2193.63 1021.05Z"></path>
</svg>